<svg xmlns="http://www.w3.org/2000/svg" xmlns:xlink="http://www.w3.org/1999/xlink" contentStyleType="text/css" data-diagram-type="DESCRIPTION" height="331px" preserveAspectRatio="none" style="width:1333px;height:331px;background:#FFFFFF;" version="1.1" viewBox="0 0 1333 331" width="1333px" zoomAndPan="magnify"><?plantuml 1.2026.4beta2?><defs/><g><!--entity U--><g class="entity" data-qualified-name="U" data-source-line="4" id="ent0002"><rect fill="#F1F1F1" height="36.2969" rx="2.5" ry="2.5" style="stroke:#181818;stroke-width:0.5;" width="78.249" x="7" y="138"/><text fill="#000000" font-family="sans-serif" font-size="14" lengthAdjust="spacing" textLength="58.249" x="17" y="160.9951">CLI / TUI</text></g><!--entity TM--><g class="entity" data-qualified-name="TM" data-source-line="5" id="ent0003"><rect fill="#F1F1F1" height="36.2969" rx="2.5" ry="2.5" style="stroke:#181818;stroke-width:0.5;" width="113.8984" x="218.25" y="138"/><text fill="#000000" font-family="sans-serif" font-size="14" lengthAdjust="spacing" textLength="93.8984" x="228.25" y="160.9951">TaskManager</text></g><!--entity DS--><g class="entity" data-qualified-name="DS" data-source-line="6" id="ent0004"><rect fill="#F1F1F1" height="36.2969" rx="2.5" ry="2.5" style="stroke:#181818;stroke-width:0.5;" width="90.7383" x="694.28" y="7"/><text fill="#000000" font-family="sans-serif" font-size="14" lengthAdjust="spacing" textLength="70.7383" x="704.28" y="29.9951">DataStore</text></g><!--entity W--><g class="entity" data-qualified-name="W" data-source-line="7" id="ent0005"><rect fill="#F1F1F1" height="36.2969" rx="2.5" ry="2.5" style="stroke:#181818;stroke-width:0.5;" width="78.8506" x="549.72" y="102"/><text fill="#000000" font-family="sans-serif" font-size="14" lengthAdjust="spacing" textLength="58.8506" x="559.72" y="124.9951">Watcher</text></g><!--entity SCH--><g class="entity" data-qualified-name="SCH" data-source-line="8" id="ent0006"><rect fill="#F1F1F1" height="52.5938" rx="2.5" ry="2.5" style="stroke:#181818;stroke-width:0.5;" width="90.0889" x="544.1" y="186.86"/><text fill="#000000" font-family="sans-serif" font-size="14" lengthAdjust="spacing" textLength="70.0889" x="554.1" y="209.8551">Scheduler</text><text fill="#000000" font-family="sans-serif" font-size="14" lengthAdjust="spacing" textLength="68.0996" x="554.1" y="226.152">(per task)</text></g><!--entity LOG--><g class="entity" data-qualified-name="LOG" data-source-line="9" id="ent0007"><rect fill="#F1F1F1" height="36.2969" rx="2.5" ry="2.5" style="stroke:#181818;stroke-width:0.5;" width="68.5078" x="872.9" y="80"/><text fill="#000000" font-family="sans-serif" font-size="14" lengthAdjust="spacing" textLength="48.5078" x="882.9" y="102.9951">Logger</text></g><!--entity LR--><g class="entity" data-qualified-name="LR" data-source-line="10" id="ent0008"><rect fill="#F1F1F1" height="36.2969" rx="2.5" ry="2.5" style="stroke:#181818;stroke-width:0.5;" width="107.2471" x="853.53" y="151"/><text fill="#000000" font-family="sans-serif" font-size="14" lengthAdjust="spacing" textLength="87.2471" x="863.53" y="173.9951">LocalRunner</text></g><!--entity RM--><g class="entity" data-qualified-name="RM" data-source-line="11" id="ent0009"><rect fill="#F1F1F1" height="52.5938" rx="2.5" ry="2.5" style="stroke:#181818;stroke-width:0.5;" width="136.0127" x="839.15" y="252.86"/><text fill="#000000" font-family="sans-serif" font-size="14" lengthAdjust="spacing" textLength="116.0127" x="849.15" y="275.8551">RemoteManager</text><text fill="#000000" font-family="sans-serif" font-size="14" lengthAdjust="spacing" textLength="86.4609" x="849.15" y="292.152">(TCP server)</text></g><!--entity RA--><g class="entity" data-qualified-name="RA" data-source-line="12" id="ent0010"><rect fill="#F1F1F1" height="52.5938" rx="2.5" ry="2.5" style="stroke:#181818;stroke-width:0.5;" width="132.793" x="1187.16" y="251.86"/><text fill="#000000" font-family="sans-serif" font-size="14" lengthAdjust="spacing" textLength="96.0859" x="1197.16" y="274.8551">RemoteAgent</text><text fill="#000000" font-family="sans-serif" font-size="14" lengthAdjust="spacing" textLength="112.793" x="1197.16" y="291.152">(remote runner)</text></g><!--entity FS--><g class="entity" data-qualified-name="FS" data-source-line="13" id="ent0011"><path d="M1228.52,19.5 C1228.52,9.5 1253.5556,9.5 1253.5556,9.5 C1253.5556,9.5 1278.5913,9.5 1278.5913,19.5 L1278.5913,44.7969 C1278.5913,54.7969 1253.5556,54.7969 1253.5556,54.7969 C1253.5556,54.7969 1228.52,54.7969 1228.52,44.7969 L1228.52,19.5" fill="#F1F1F1" style="stroke:#181818;stroke-width:0.5;"/><path d="M1228.52,19.5 C1228.52,29.5 1253.5556,29.5 1253.5556,29.5 C1253.5556,29.5 1278.5913,29.5 1278.5913,19.5" fill="none" style="stroke:#181818;stroke-width:0.5;"/><text fill="#000000" font-family="sans-serif" font-size="14" lengthAdjust="spacing" textLength="30.0713" x="1238.52" y="46.4951">Disk</text></g><!--link U to TM--><g class="link" data-entity-1="ent0002" data-entity-2="ent0003" data-link-type="dependency" data-source-line="15" id="lnk12"><path d="M85.64,156.15 C121.96,156.15 170.81,156.15 212,156.15" fill="none" id="U-to-TM" style="stroke:#181818;stroke-width:1;"/><polygon fill="#181818" points="218,156.15,209,152.15,213,156.15,209,160.15,218,156.15" style="stroke:#181818;stroke-width:1;"/><text fill="#000000" font-family="sans-serif" font-size="13" lengthAdjust="spacing" textLength="71.6587" x="116.25" y="152.2169">commands</text><text fill="#000000" font-family="sans-serif" font-size="13" lengthAdjust="spacing" textLength="8.271" x="93.1425" y="169.5176">1</text><text fill="#000000" font-family="sans-serif" font-size="13" lengthAdjust="spacing" textLength="8.271" x="201.7946" y="169.2338">1</text></g><!--link TM to DS--><g class="link" data-entity-1="ent0003" data-entity-2="ent0004" data-link-type="dependency" data-source-line="16" id="lnk13"><path d="M298.1,137.71 C314.67,124.71 338.53,107.93 362.15,98.15 C475.8,51.09 615.5199,34.4288 687.8199,28.5188" fill="none" id="TM-to-DS" style="stroke:#181818;stroke-width:1;"/><polygon fill="#181818" points="693.8,28.03,684.504,24.7765,688.8166,28.4374,685.1558,32.7499,693.8,28.03" style="stroke:#181818;stroke-width:1;"/><text fill="#000000" font-family="sans-serif" font-size="13" lengthAdjust="spacing" textLength="129.7334" x="370.65" y="52.2169">load/save metadata</text><text fill="#000000" font-family="sans-serif" font-size="13" lengthAdjust="spacing" textLength="8.271" x="295.9299" y="126.8536">1</text><text fill="#000000" font-family="sans-serif" font-size="13" lengthAdjust="spacing" textLength="8.271" x="677.8769" y="41.762">1</text></g><!--link DS to FS--><g class="link" data-entity-1="ent0004" data-entity-2="ent0011" data-link-type="dependency" data-source-line="17" id="lnk14"><path d="M785.18,25.76 C889.66,27.19 1141.7406,30.638 1222.2006,31.738" fill="none" id="DS-to-FS" style="stroke:#181818;stroke-width:1;"/><polygon fill="#181818" points="1228.2,31.82,1219.2555,27.6973,1223.2005,31.7516,1219.1462,35.6966,1228.2,31.82" style="stroke:#181818;stroke-width:1;"/><text fill="#000000" font-family="sans-serif" font-size="13" lengthAdjust="spacing" textLength="97.3286" x="858.65" y="23.2169">read/write files</text><text fill="#000000" font-family="sans-serif" font-size="13" lengthAdjust="spacing" textLength="8.271" x="793.0956" y="39.1303">1</text><text fill="#000000" font-family="sans-serif" font-size="13" lengthAdjust="spacing" textLength="8.271" x="1212.3471" y="45.8321">1</text></g><!--link TM to W--><g class="link" data-entity-1="ent0003" data-entity-2="ent0005" data-link-type="dependency" data-source-line="18" id="lnk15"><path d="M332.42,143.31 C342.29,141.36 352.49,139.54 362.15,138.15 C427.6,128.73 498.4871,124.2109 543.5971,122.0209" fill="none" id="TM-to-W" style="stroke:#181818;stroke-width:1;"/><polygon fill="#181818" points="549.59,121.73,540.4066,118.1711,544.5959,121.9725,540.7946,126.1617,549.59,121.73" style="stroke:#181818;stroke-width:1;"/><text fill="#000000" font-family="sans-serif" font-size="13" lengthAdjust="spacing" textLength="136.4873" x="367.15" y="119.2169">add/remove watches</text><text fill="#000000" font-family="sans-serif" font-size="13" lengthAdjust="spacing" textLength="8.271" x="340.2813" y="154.7014">1</text><text fill="#000000" font-family="sans-serif" font-size="13" lengthAdjust="spacing" textLength="8.271" x="533.5845" y="135.4836">1</text></g><!--link W to TM--><g class="link" data-entity-1="ent0005" data-entity-2="ent0003" data-link-type="dependency" data-source-line="19" id="lnk16"><path d="M561.76,138.63 C546.78,147.98 527.26,158.34 508.15,163.15 C449.54,177.9 385.9227,173.7974 338.3727,167.1774" fill="none" id="W-to-TM" style="stroke:#181818;stroke-width:1;"/><polygon fill="#181818" points="332.43,166.35,340.7925,171.5528,337.3822,167.0395,341.8956,163.6292,332.43,166.35" style="stroke:#181818;stroke-width:1;"/><text fill="#000000" font-family="sans-serif" font-size="13" lengthAdjust="spacing" textLength="91.8315" x="389.65" y="159.2169">trigger events</text><text fill="#000000" font-family="sans-serif" font-size="13" lengthAdjust="spacing" textLength="23.0356" x="527.3427" y="158.3485">0..*</text><text fill="#000000" font-family="sans-serif" font-size="13" lengthAdjust="spacing" textLength="8.271" x="340.2926" y="180.6934">1</text></g><!--link TM to SCH--><g class="link" data-entity-1="ent0003" data-entity-2="ent0006" data-link-type="dependency" data-source-line="20" id="lnk17"><path d="M307.75,174.71 C323.55,183.08 343.28,192.18 362.15,197.15 C423.57,213.35 491.4406,215.5632 537.6106,214.9232" fill="none" id="TM-to-SCH" style="stroke:#181818;stroke-width:1;"/><polygon fill="#181818" points="543.61,214.84,534.5554,210.9651,538.6105,214.9093,534.6663,218.9644,543.61,214.84" style="stroke:#181818;stroke-width:1;"/><text fill="#000000" font-family="sans-serif" font-size="13" lengthAdjust="spacing" textLength="144.4155" x="363.15" y="193.2169">start/update/stop task</text><text fill="#000000" font-family="sans-serif" font-size="13" lengthAdjust="spacing" textLength="8.271" x="308.1766" y="194.452">1</text><text fill="#000000" font-family="sans-serif" font-size="13" lengthAdjust="spacing" textLength="23.0356" x="512.9484" y="228.1498">0..*</text></g><!--link SCH to LR--><g class="link" data-entity-1="ent0006" data-entity-2="ent0008" data-link-type="dependency" data-source-line="21" id="lnk18"><path d="M634.42,206.99 C691.83,198.99 785.9274,185.898 847.2874,177.348" fill="none" id="SCH-to-LR" style="stroke:#181818;stroke-width:1;"/><polygon fill="#181818" points="853.23,176.52,843.7641,173.8003,848.2778,177.21,844.8682,181.7238,853.23,176.52" style="stroke:#181818;stroke-width:1;"/><text fill="#000000" font-family="sans-serif" font-size="13" lengthAdjust="spacing" textLength="86.9692" x="696.65" y="179.2169">run local jobs</text><text fill="#000000" font-family="sans-serif" font-size="13" lengthAdjust="spacing" textLength="8.271" x="642.2949" y="219.2799">1</text><text fill="#000000" font-family="sans-serif" font-size="13" lengthAdjust="spacing" textLength="23.0356" x="822.6675" y="190.3141">0..*</text></g><!--link TM to RM--><g class="link" data-entity-1="ent0003" data-entity-2="ent0009" data-link-type="dependency" data-source-line="22" id="lnk19"><path d="M295.93,174.73 C312.49,189.43 337.34,209.52 362.15,222.15 C488.48,286.49 529.32,288.84 670.15,305.15 C731.51,312.26 747.9,313.22 809.15,305.15 C818.83,303.88 823.0759,303.2787 832.9259,300.9887" fill="none" id="TM-to-RM" style="stroke:#181818;stroke-width:1;"/><polygon fill="#181818" points="838.77,299.63,829.098,297.7719,833.8999,300.7622,830.9096,305.5641,838.77,299.63" style="stroke:#181818;stroke-width:1;"/><text fill="#000000" font-family="sans-serif" font-size="13" lengthAdjust="spacing" textLength="100.3311" x="539.15" y="283.2169">poll for packets</text><text fill="#000000" font-family="sans-serif" font-size="13" lengthAdjust="spacing" textLength="8.271" x="292.8845" y="194.4779">1</text><text fill="#000000" font-family="sans-serif" font-size="13" lengthAdjust="spacing" textLength="8.271" x="822.8676" y="314.7637">1</text></g><!--link SCH to RM--><g class="link" data-entity-1="ent0006" data-entity-2="ent0009" data-link-type="dependency" data-source-line="23" id="lnk20"><path d="M634.42,222.4 C687.5,233.49 771.1468,250.9528 832.8368,263.8428" fill="none" id="SCH-to-RM" style="stroke:#181818;stroke-width:1;"/><polygon fill="#181818" points="838.71,265.07,830.7184,259.3138,833.8157,264.0473,829.0821,267.1447,838.71,265.07" style="stroke:#181818;stroke-width:1;"/><text fill="#000000" font-family="sans-serif" font-size="13" lengthAdjust="spacing" textLength="137.249" x="671.15" y="226.2169">dispatch remote jobs</text><text fill="#000000" font-family="sans-serif" font-size="13" lengthAdjust="spacing" textLength="23.0356" x="642.0516" y="236.7257">0..*</text><text fill="#000000" font-family="sans-serif" font-size="13" lengthAdjust="spacing" textLength="8.271" x="822.801" y="276.4237">1</text></g><!--link RM to SCH--><g class="link" data-entity-1="ent0009" data-entity-2="ent0006" data-link-type="dependency" data-source-line="26" id="lnk23"><path d="M838.85,292.61 C790.4,299.33 724.3,302.28 670.15,282.15 C647.28,273.65 630.68,259.7406 616.07,244.1306" fill="none" id="RM-to-SCH" style="stroke:#181818;stroke-width:1;"/><polygon fill="#181818" points="611.97,239.75,615.1996,249.0543,615.3867,243.4005,621.0404,243.5876,611.97,239.75" style="stroke:#181818;stroke-width:1;"/><text fill="#000000" font-family="sans-serif" font-size="13" lengthAdjust="spacing" textLength="129.0098" x="675.15" y="278.2169">forward logs/results</text><text fill="#000000" font-family="sans-serif" font-size="13" lengthAdjust="spacing" textLength="8.271" x="822.9563" y="290.3353">1</text><text fill="#000000" font-family="sans-serif" font-size="13" lengthAdjust="spacing" textLength="23.0356" x="591.5932" y="259.7163">0..*</text></g><!--link RM to RA--><g class="link" data-entity-1="ent0009" data-entity-2="ent0010" data-link-type="dependency" data-source-line="24" id="lnk21"><path d="M975.38,278.96 C1036.45,278.78 1120.02,278.5378 1180.67,278.3578" fill="none" id="RM-to-RA" style="stroke:#181818;stroke-width:1;"/><polygon fill="#181818" points="1186.67,278.34,1177.6582,274.3667,1181.67,278.3548,1177.6819,282.3667,1186.67,278.34" style="stroke:#181818;stroke-width:1;"/><text fill="#000000" font-family="sans-serif" font-size="13" lengthAdjust="spacing" textLength="100.6167" x="1031.0345" y="259.2169">TCP connection</text><text fill="#000000" font-family="sans-serif" font-size="13" lengthAdjust="spacing" textLength="114.3657" x="1024.16" y="274.3497">RUN_JOB/CANCEL</text><text fill="#000000" font-family="sans-serif" font-size="13" lengthAdjust="spacing" textLength="8.271" x="983.2943" y="291.8329">1</text><text fill="#000000" font-family="sans-serif" font-size="13" lengthAdjust="spacing" textLength="23.0356" x="1156.2005" y="291.1455">0..*</text></g><!--link RA to RM--><g class="link" data-entity-1="ent0010" data-entity-2="ent0009" data-link-type="dependency" data-source-line="25" id="lnk22"><path d="M1186.79,297.73 C1176.94,299.97 1166.84,301.91 1157.16,303.15 C1090.16,311.79 1072.22,311.32 1005.16,303.15 C995.52,301.98 991.3166,301.428 981.4766,299.318" fill="none" id="RA-to-RM" style="stroke:#181818;stroke-width:1;"/><polygon fill="#181818" points="975.61,298.06,983.5713,303.8581,980.4989,299.1083,985.2486,296.0359,975.61,298.06" style="stroke:#181818;stroke-width:1;"/><text fill="#000000" font-family="sans-serif" font-size="13" lengthAdjust="spacing" textLength="150.7505" x="1006.16" y="299.2169">JOB_START/LOG/FINISH</text><text fill="#000000" font-family="sans-serif" font-size="13" lengthAdjust="spacing" textLength="23.0356" x="1156.0874" y="312.4684">0..*</text><text fill="#000000" font-family="sans-serif" font-size="13" lengthAdjust="spacing" textLength="8.271" x="983.0958" y="312.8566">1</text></g><!--link SCH to LOG--><g class="link" data-entity-1="ent0006" data-entity-2="ent0007" data-link-type="dependency" data-source-line="27" id="lnk24"><path d="M623.21,186.51 C637.05,176.43 653.72,165.6 670.15,158.15 C738.49,127.17 819.5938,111.2478 866.5438,103.8178" fill="none" id="SCH-to-LOG" style="stroke:#181818;stroke-width:1;"/><polygon fill="#181818" points="872.47,102.88,862.9554,100.3359,867.5315,103.6615,864.2059,108.2376,872.47,102.88" style="stroke:#181818;stroke-width:1;"/><text fill="#000000" font-family="sans-serif" font-size="13" lengthAdjust="spacing" textLength="120.6943" x="679.65" y="96.2169">write run/job meta</text><text fill="#000000" font-family="sans-serif" font-size="13" lengthAdjust="spacing" textLength="79.6821" x="700.1561" y="111.3497">append logs</text><text fill="#000000" font-family="sans-serif" font-size="13" lengthAdjust="spacing" textLength="23.0356" x="605.4324" y="175.6958">0..*</text><text fill="#000000" font-family="sans-serif" font-size="13" lengthAdjust="spacing" textLength="8.271" x="856.5194" y="117.4834">1</text></g><!--link LOG to FS--><g class="link" data-entity-1="ent0007" data-entity-2="ent0011" data-link-type="dependency" data-source-line="28" id="lnk25"><path d="M941.66,92.51 C989.55,84.36 1080.27,68.56 1157.16,53.15 C1181.44,48.29 1203.1995,43.4712 1222.4495,39.0912" fill="none" id="LOG-to-FS" style="stroke:#181818;stroke-width:1;"/><polygon fill="#181818" points="1228.3,37.76,1218.6368,35.8564,1223.4246,38.8693,1220.4117,43.6571,1228.3,37.76" style="stroke:#181818;stroke-width:1;"/><text fill="#000000" font-family="sans-serif" font-size="13" lengthAdjust="spacing" textLength="32.6841" x="1065.16" y="49.2169">write</text><text fill="#000000" font-family="sans-serif" font-size="13" lengthAdjust="spacing" textLength="23.0356" x="949.2827" y="104.8962">0..*</text><text fill="#000000" font-family="sans-serif" font-size="13" lengthAdjust="spacing" textLength="8.271" x="1212.11" y="34.3144">1</text></g><?plantuml-src RP9FZvim4CNl_XGZJcsbNTfh3vKeQRgfIBOoHBb4Mit2XAK1sx9DedxxZfriHVwSaFr-l7apuvvs7hm6sxLl7fhEKkqxhOJRTygWnG5gFHYjIFdI_-q90e2gxKc8_meaUR605Ahr8W5qi9vA5Rhz4XMsPADOBQVg33sMNbkAsgoSQXlqzTlvhyrKAFcw6NkoM_N1a0NF9Jv6hCoVfc2Xs_UonVFFIwN6NevAlSjogaeQjATpQYvIvR_1aJsGFPMHoriwQ_d0h8qdiD7xZ6UYuJvVqH5ttBbzl9sNGgm1aYy9F3nyYzzg2L_3m0TKZHDycegpaiLUOvCwF10Cv36u2hwVOlE0MMBiQ3iEikjwkl7Q04FOD6b8osR7E6ed-3xv_FZuwIgIv-V1am0wS8-NPYUQvywOysXzEXgEHQdpsiJDY21UyOKC8KV5_V0Uu8z-ZQuN6MMeR7JVmqvRC5ZlYMj7iyk84MmwPq8JS9v_j9GtGMN6R5XdhNa_yQrlbLolNduzVq_pR9N_A0GpzoemyL9McQnIValfVB5Qb4ztAfn6mP6FQ1lkhtKyP3VszxEp5TEdJV4yKeuTDxjLQ0ofau48rDMFSStnlty0?></g></svg>