<svg xmlns="http://www.w3.org/2000/svg" xmlns:xlink="http://www.w3.org/1999/xlink" contentStyleType="text/css" data-diagram-type="SEQUENCE" height="1585px" preserveAspectRatio="none" style="width:1565px;height:1585px;background:#FFFFFF;" version="1.1" viewBox="0 0 1565 1585" width="1565px" zoomAndPan="magnify"><?plantuml 1.2026.4beta2?><defs/><g><g class="title" data-source-line="1"><text fill="#000000" font-family="sans-serif" font-size="14" font-weight="700" lengthAdjust="spacing" textLength="215.7969" x="671.49" y="27.9951">Running a Task (Sequence)</text></g><rect fill="none" height="1130.3281" style="stroke:#000000;stroke-width:1.5;" width="1539.7769" x="10" y="339.6875"/><rect fill="none" height="836.1953" style="stroke:#000000;stroke-width:1.5;" width="1519.7769" x="20" y="539.4219"/><rect fill="none" height="599.4609" style="stroke:#000000;stroke-width:1.5;" width="1060.6929" x="469.084" y="563.5547"/><rect fill="none" height="117.5313" style="stroke:#000000;stroke-width:1.5;" width="1040.6929" x="479.084" y="733.3516"/><rect fill="none" height="191.6016" style="stroke:#000000;stroke-width:1.5;" width="1489.7769" x="30" y="1177.0156"/><rect fill="none" height="17.1328" style="stroke:#000000;stroke-width:1.5;" width="207.3804" x="40" y="1344.4844"/><g class="participant-lifeline" data-entity-uid="part1" data-qualified-name="U" data-source-line="3" id="part1-lifeline"><g><title>User</title><rect fill="#000000" fill-opacity="0.00000" height="1352.125" width="8" x="59.1362" y="134.8906"/><line style="stroke:#181818;stroke-width:0.5;stroke-dasharray:5,5;" x1="63" x2="63" y1="134.8906" y2="1487.0156"/></g></g><g class="participant-lifeline" data-entity-uid="part2" data-qualified-name="TM" data-source-line="4" id="part2-lifeline"><g><title>TaskManager</title><rect fill="#000000" fill-opacity="0.00000" height="1352.125" width="8" x="212.8506" y="134.8906"/><line style="stroke:#181818;stroke-width:0.5;stroke-dasharray:5,5;" x1="215.9014" x2="215.9014" y1="134.8906" y2="1487.0156"/></g></g><g class="participant-lifeline" data-entity-uid="part3" data-qualified-name="DS" data-source-line="5" id="part3-lifeline"><g><title>DataStore</title><rect fill="#000000" fill-opacity="0.00000" height="1352.125" width="8" x="350.7148" y="134.8906"/><line style="stroke:#181818;stroke-width:0.5;stroke-dasharray:5,5;" x1="354.3457" x2="354.3457" y1="134.8906" y2="1487.0156"/></g></g><g class="participant-lifeline" data-entity-uid="part4" data-qualified-name="SCH" data-source-line="6" id="part4-lifeline"><g><title>Scheduler</title><rect fill="#000000" fill-opacity="0.00000" height="1352.125" width="8" x="527.1284" y="134.8906"/><line style="stroke:#181818;stroke-width:0.5;stroke-dasharray:5,5;" x1="531.084" x2="531.084" y1="134.8906" y2="1487.0156"/></g></g><g class="participant-lifeline" data-entity-uid="part5" data-qualified-name="RP" data-source-line="7" id="part5-lifeline"><g><title>RunnerPool</title><rect fill="#000000" fill-opacity="0.00000" height="1352.125" width="8" x="722.062" y="134.8906"/><line style="stroke:#181818;stroke-width:0.5;stroke-dasharray:5,5;" x1="725.9727" x2="725.9727" y1="134.8906" y2="1487.0156"/></g></g><g class="participant-lifeline" data-entity-uid="part6" data-qualified-name="LR" data-source-line="8" id="part6-lifeline"><g><title>LocalRunner</title><rect fill="#000000" fill-opacity="0.00000" height="1352.125" width="8" x="829.7749" y="134.8906"/><line style="stroke:#181818;stroke-width:0.5;stroke-dasharray:5,5;" x1="833.1514" x2="833.1514" y1="134.8906" y2="1487.0156"/></g></g><g class="participant-lifeline" data-entity-uid="part7" data-qualified-name="RM" data-source-line="9" id="part7-lifeline"><g><title>RemoteManager</title><rect fill="#000000" fill-opacity="0.00000" height="1352.125" width="8" x="1009.0298" y="134.8906"/><line style="stroke:#181818;stroke-width:0.5;stroke-dasharray:5,5;" x1="1013.0234" x2="1013.0234" y1="134.8906" y2="1487.0156"/></g></g><g class="participant-lifeline" data-entity-uid="part8" data-qualified-name="RA" data-source-line="10" id="part8-lifeline"><g><title>RemoteAgent</title><rect fill="#000000" fill-opacity="0.00000" height="1352.125" width="8" x="1367.1641" y="134.8906"/><line style="stroke:#181818;stroke-width:0.5;stroke-dasharray:5,5;" x1="1371.1211" x2="1371.1211" y1="134.8906" y2="1487.0156"/></g></g><g class="participant-lifeline" data-entity-uid="part9" data-qualified-name="FS" data-source-line="11" id="part9-lifeline"><g><title>Disk</title><rect fill="#000000" fill-opacity="0.00000" height="1352.125" width="8" x="1487.7412" y="134.8906"/><line style="stroke:#181818;stroke-width:0.5;stroke-dasharray:5,5;" x1="1491.7056" x2="1491.7056" y1="134.8906" y2="1487.0156"/></g></g><g class="participant participant-head" data-entity-uid="part1" data-qualified-name="U" data-source-line="3" id="part1-head"><text fill="#000000" font-family="sans-serif" font-size="14" lengthAdjust="spacing" textLength="31.9102" x="44.1812" y="115.292">User</text><text fill="#000000" font-family="sans-serif" font-size="14" lengthAdjust="spacing" textLength="60.2725" x="30" y="131.5889">(CLI/TUI)</text><ellipse cx="63.1362" cy="50.7969" fill="#E2E2F0" rx="8" ry="8" style="stroke:#181818;stroke-width:0.5;"/><path d="M63.1362,58.7969 L63.1362,85.7969 M50.1362,66.7969 L76.1362,66.7969 M63.1362,85.7969 L50.1362,100.7969 M63.1362,85.7969 L76.1362,100.7969" fill="none" style="stroke:#181818;stroke-width:0.5;"/></g><g class="participant participant-tail" data-entity-uid="part1" data-qualified-name="U" data-source-line="3" id="part1-tail"><text fill="#000000" font-family="sans-serif" font-size="14" lengthAdjust="spacing" textLength="31.9102" x="44.1812" y="1499.0107">User</text><text fill="#000000" font-family="sans-serif" font-size="14" lengthAdjust="spacing" textLength="60.2725" x="30" y="1515.3076">(CLI/TUI)</text><ellipse cx="63.1362" cy="1527.1094" fill="#E2E2F0" rx="8" ry="8" style="stroke:#181818;stroke-width:0.5;"/><path d="M63.1362,1535.1094 L63.1362,1562.1094 M50.1362,1543.1094 L76.1362,1543.1094 M63.1362,1562.1094 L50.1362,1577.1094 M63.1362,1562.1094 L76.1362,1577.1094" fill="none" style="stroke:#181818;stroke-width:0.5;"/></g><g class="participant participant-head" data-entity-uid="part2" data-qualified-name="TM" data-source-line="4" id="part2-head"><rect fill="#E2E2F0" height="30.2969" rx="2.5" ry="2.5" style="stroke:#181818;stroke-width:0.5;" width="107.8984" x="162.9014" y="103.5938"/><text fill="#000000" font-family="sans-serif" font-size="14" lengthAdjust="spacing" textLength="93.8984" x="169.9014" y="123.5889">TaskManager</text></g><g class="participant participant-tail" data-entity-uid="part2" data-qualified-name="TM" data-source-line="4" id="part2-tail"><rect fill="#E2E2F0" height="30.2969" rx="2.5" ry="2.5" style="stroke:#181818;stroke-width:0.5;" width="107.8984" x="162.9014" y="1486.0156"/><text fill="#000000" font-family="sans-serif" font-size="14" lengthAdjust="spacing" textLength="93.8984" x="169.9014" y="1506.0107">TaskManager</text></g><g class="participant participant-head" data-entity-uid="part3" data-qualified-name="DS" data-source-line="5" id="part3-head"><rect fill="#E2E2F0" height="30.2969" rx="2.5" ry="2.5" style="stroke:#181818;stroke-width:0.5;" width="84.7383" x="312.3457" y="103.5938"/><text fill="#000000" font-family="sans-serif" font-size="14" lengthAdjust="spacing" textLength="70.7383" x="319.3457" y="123.5889">DataStore</text></g><g class="participant participant-tail" data-entity-uid="part3" data-qualified-name="DS" data-source-line="5" id="part3-tail"><rect fill="#E2E2F0" height="30.2969" rx="2.5" ry="2.5" style="stroke:#181818;stroke-width:0.5;" width="84.7383" x="312.3457" y="1486.0156"/><text fill="#000000" font-family="sans-serif" font-size="14" lengthAdjust="spacing" textLength="70.7383" x="319.3457" y="1506.0107">DataStore</text></g><g class="participant participant-head" data-entity-uid="part4" data-qualified-name="SCH" data-source-line="6" id="part4-head"><rect fill="#E2E2F0" height="46.5938" rx="2.5" ry="2.5" style="stroke:#181818;stroke-width:0.5;" width="84.0889" x="489.084" y="87.2969"/><text fill="#000000" font-family="sans-serif" font-size="14" lengthAdjust="spacing" textLength="70.0889" x="496.084" y="107.292">Scheduler</text><text fill="#000000" font-family="sans-serif" font-size="14" lengthAdjust="spacing" textLength="68.0996" x="497.0786" y="123.5889">(per task)</text></g><g class="participant participant-tail" data-entity-uid="part4" data-qualified-name="SCH" data-source-line="6" id="part4-tail"><rect fill="#E2E2F0" height="46.5938" rx="2.5" ry="2.5" style="stroke:#181818;stroke-width:0.5;" width="84.0889" x="489.084" y="1486.0156"/><text fill="#000000" font-family="sans-serif" font-size="14" lengthAdjust="spacing" textLength="70.0889" x="496.084" y="1506.0107">Scheduler</text><text fill="#000000" font-family="sans-serif" font-size="14" lengthAdjust="spacing" textLength="68.0996" x="497.0786" y="1522.3076">(per task)</text></g><g class="participant participant-head" data-entity-uid="part5" data-qualified-name="RP" data-source-line="7" id="part5-head"><rect fill="#E2E2F0" height="30.2969" rx="2.5" ry="2.5" style="stroke:#181818;stroke-width:0.5;" width="94.1787" x="678.9727" y="103.5938"/><text fill="#000000" font-family="sans-serif" font-size="14" lengthAdjust="spacing" textLength="80.1787" x="685.9727" y="123.5889">RunnerPool</text></g><g class="participant participant-tail" data-entity-uid="part5" data-qualified-name="RP" data-source-line="7" id="part5-tail"><rect fill="#E2E2F0" height="30.2969" rx="2.5" ry="2.5" style="stroke:#181818;stroke-width:0.5;" width="94.1787" x="678.9727" y="1486.0156"/><text fill="#000000" font-family="sans-serif" font-size="14" lengthAdjust="spacing" textLength="80.1787" x="685.9727" y="1506.0107">RunnerPool</text></g><g class="participant participant-head" data-entity-uid="part6" data-qualified-name="LR" data-source-line="8" id="part6-head"><rect fill="#E2E2F0" height="30.2969" rx="2.5" ry="2.5" style="stroke:#181818;stroke-width:0.5;" width="101.2471" x="783.1514" y="103.5938"/><text fill="#000000" font-family="sans-serif" font-size="14" lengthAdjust="spacing" textLength="87.2471" x="790.1514" y="123.5889">LocalRunner</text></g><g class="participant participant-tail" data-entity-uid="part6" data-qualified-name="LR" data-source-line="8" id="part6-tail"><rect fill="#E2E2F0" height="30.2969" rx="2.5" ry="2.5" style="stroke:#181818;stroke-width:0.5;" width="101.2471" x="783.1514" y="1486.0156"/><text fill="#000000" font-family="sans-serif" font-size="14" lengthAdjust="spacing" textLength="87.2471" x="790.1514" y="1506.0107">LocalRunner</text></g><g class="participant participant-head" data-entity-uid="part7" data-qualified-name="RM" data-source-line="9" id="part7-head"><rect fill="#E2E2F0" height="30.2969" rx="2.5" ry="2.5" style="stroke:#181818;stroke-width:0.5;" width="130.0127" x="948.0234" y="103.5938"/><text fill="#000000" font-family="sans-serif" font-size="14" lengthAdjust="spacing" textLength="116.0127" x="955.0234" y="123.5889">RemoteManager</text></g><g class="participant participant-tail" data-entity-uid="part7" data-qualified-name="RM" data-source-line="9" id="part7-tail"><rect fill="#E2E2F0" height="30.2969" rx="2.5" ry="2.5" style="stroke:#181818;stroke-width:0.5;" width="130.0127" x="948.0234" y="1486.0156"/><text fill="#000000" font-family="sans-serif" font-size="14" lengthAdjust="spacing" textLength="116.0127" x="955.0234" y="1506.0107">RemoteManager</text></g><g class="participant participant-head" data-entity-uid="part8" data-qualified-name="RA" data-source-line="10" id="part8-head"><rect fill="#E2E2F0" height="30.2969" rx="2.5" ry="2.5" style="stroke:#181818;stroke-width:0.5;" width="110.0859" x="1316.1211" y="103.5938"/><text fill="#000000" font-family="sans-serif" font-size="14" lengthAdjust="spacing" textLength="96.0859" x="1323.1211" y="123.5889">RemoteAgent</text></g><g class="participant participant-tail" data-entity-uid="part8" data-qualified-name="RA" data-source-line="10" id="part8-tail"><rect fill="#E2E2F0" height="30.2969" rx="2.5" ry="2.5" style="stroke:#181818;stroke-width:0.5;" width="110.0859" x="1316.1211" y="1486.0156"/><text fill="#000000" font-family="sans-serif" font-size="14" lengthAdjust="spacing" textLength="96.0859" x="1323.1211" y="1506.0107">RemoteAgent</text></g><g class="participant participant-head" data-entity-uid="part9" data-qualified-name="FS" data-source-line="11" id="part9-head"><text fill="#000000" font-family="sans-serif" font-size="14" lengthAdjust="spacing" textLength="30.0713" x="1473.7056" y="131.5889">Disk</text><path d="M1473.7412,82.5938 C1473.7412,72.5938 1491.7412,72.5938 1491.7412,72.5938 C1491.7412,72.5938 1509.7412,72.5938 1509.7412,82.5938 L1509.7412,108.5938 C1509.7412,118.5938 1491.7412,118.5938 1491.7412,118.5938 C1491.7412,118.5938 1473.7412,118.5938 1473.7412,108.5938 L1473.7412,82.5938" fill="#E2E2F0" style="stroke:#181818;stroke-width:0.5;"/><path d="M1473.7412,82.5938 C1473.7412,92.5938 1491.7412,92.5938 1491.7412,92.5938 C1491.7412,92.5938 1509.7412,92.5938 1509.7412,82.5938" fill="none" style="stroke:#181818;stroke-width:0.5;"/></g><g class="participant participant-tail" data-entity-uid="part9" data-qualified-name="FS" data-source-line="11" id="part9-tail"><text fill="#000000" font-family="sans-serif" font-size="14" lengthAdjust="spacing" textLength="30.0713" x="1473.7056" y="1499.0107">Disk</text><path d="M1473.7412,1512.3125 C1473.7412,1502.3125 1491.7412,1502.3125 1491.7412,1502.3125 C1491.7412,1502.3125 1509.7412,1502.3125 1509.7412,1512.3125 L1509.7412,1538.3125 C1509.7412,1548.3125 1491.7412,1548.3125 1491.7412,1548.3125 C1491.7412,1548.3125 1473.7412,1548.3125 1473.7412,1538.3125 L1473.7412,1512.3125" fill="#E2E2F0" style="stroke:#181818;stroke-width:0.5;"/><path d="M1473.7412,1512.3125 C1473.7412,1522.3125 1491.7412,1522.3125 1491.7412,1522.3125 C1491.7412,1522.3125 1509.7412,1522.3125 1509.7412,1512.3125" fill="none" style="stroke:#181818;stroke-width:0.5;"/></g><g class="message" data-entity-1="part1" data-entity-2="part2" data-source-line="13" id="msg1"><polygon fill="#181818" points="204.8506,162.0234,214.8506,166.0234,204.8506,170.0234,208.8506,166.0234" style="stroke:#181818;stroke-width:1;"/><line style="stroke:#181818;stroke-width:1;" x1="63.1362" x2="210.8506" y1="166.0234" y2="166.0234"/><text fill="#000000" font-family="sans-serif" font-size="13" lengthAdjust="spacing" textLength="122.4336" x="70.1362" y="160.9575">beginTask(task_id)</text></g><g class="message" data-entity-1="part2" data-entity-2="part3" data-source-line="14" id="msg2"><polygon fill="#181818" points="342.7148,191.1563,352.7148,195.1563,342.7148,199.1563,346.7148,195.1563" style="stroke:#181818;stroke-width:1;"/><line style="stroke:#181818;stroke-width:1;" x1="216.8506" x2="348.7148" y1="195.1563" y2="195.1563"/><text fill="#000000" font-family="sans-serif" font-size="13" lengthAdjust="spacing" textLength="113.8643" x="223.8506" y="190.0903">loadTask(task_id)</text></g><g class="message" data-entity-1="part3" data-entity-2="part9" data-source-line="15" id="msg3"><polygon fill="#181818" points="1479.7412,220.2891,1489.7412,224.2891,1479.7412,228.2891,1483.7412,224.2891" style="stroke:#181818;stroke-width:1;"/><line style="stroke:#181818;stroke-width:1;" x1="354.7148" x2="1485.7412" y1="224.2891" y2="224.2891"/><text fill="#000000" font-family="sans-serif" font-size="13" lengthAdjust="spacing" textLength="100.4834" x="361.7148" y="219.2231">read task YAML</text></g><g class="message" data-entity-1="part3" data-entity-2="part2" data-source-line="16" id="msg4"><polygon fill="#181818" points="227.8506,249.4219,217.8506,253.4219,227.8506,257.4219,223.8506,253.4219" style="stroke:#181818;stroke-width:1;"/><line style="stroke:#181818;stroke-width:1;stroke-dasharray:2,2;" x1="221.8506" x2="353.7148" y1="253.4219" y2="253.4219"/><text fill="#000000" font-family="sans-serif" font-size="13" lengthAdjust="spacing" textLength="89.0703" x="233.8506" y="248.356">Task (parsed)</text></g><g class="message" data-entity-1="part2" data-entity-2="part4" data-source-line="17" id="msg5"><polygon fill="#181818" points="519.1284,278.5547,529.1284,282.5547,519.1284,286.5547,523.1284,282.5547" style="stroke:#181818;stroke-width:1;"/><line style="stroke:#181818;stroke-width:1;" x1="216.8506" x2="525.1284" y1="282.5547" y2="282.5547"/><text fill="#000000" font-family="sans-serif" font-size="13" lengthAdjust="spacing" textLength="58.0684" x="223.8506" y="277.4888">init(task)</text></g><g class="message" data-entity-1="part4" data-entity-2="part4" data-source-line="18" id="msg6"><line style="stroke:#181818;stroke-width:1;" x1="531.1284" x2="573.1284" y1="311.6875" y2="311.6875"/><line style="stroke:#181818;stroke-width:1;" x1="573.1284" x2="573.1284" y1="311.6875" y2="324.6875"/><line style="stroke:#181818;stroke-width:1;" x1="532.1284" x2="573.1284" y1="324.6875" y2="324.6875"/><polygon fill="#181818" points="542.1284,320.6875,532.1284,324.6875,542.1284,328.6875,538.1284,324.6875" style="stroke:#181818;stroke-width:1;"/><text fill="#000000" font-family="sans-serif" font-size="13" lengthAdjust="spacing" textLength="180.9336" x="538.1284" y="306.6216">build DAG + validate cycles</text></g><path d="M10,339.6875 L74.4429,339.6875 L74.4429,346.8203 L64.4429,356.8203 L10,356.8203 L10,339.6875" fill="#EEEEEE" style="stroke:#000000;stroke-width:1.5;"/><rect fill="none" height="1130.3281" style="stroke:#000000;stroke-width:1.5;" width="1539.7769" x="10" y="339.6875"/><text fill="#000000" font-family="sans-serif" font-size="13" font-weight="700" lengthAdjust="spacing" textLength="19.4429" x="25" y="352.7544">alt</text><text fill="#000000" font-family="sans-serif" font-size="11" font-weight="700" lengthAdjust="spacing" textLength="109.146" x="89.4429" y="351.8979">[task has trigger]</text><g class="message" data-entity-1="part2" data-entity-2="part4" data-source-line="21" id="msg7"><polygon fill="#181818" points="519.1284,389.0859,529.1284,393.0859,519.1284,397.0859,523.1284,393.0859" style="stroke:#181818;stroke-width:1;"/><line style="stroke:#181818;stroke-width:1;" x1="216.8506" x2="525.1284" y1="393.0859" y2="393.0859"/><text fill="#000000" font-family="sans-serif" font-size="13" lengthAdjust="spacing" textLength="71.4111" x="223.8506" y="372.8872">set waiting</text><text fill="#000000" font-family="sans-serif" font-size="13" lengthAdjust="spacing" textLength="154.1528" x="223.8506" y="388.02">(Watcher handles later)</text></g><g class="message" data-entity-1="part2" data-entity-2="part1" data-source-line="22" id="msg8"><polygon fill="#181818" points="74.1362,418.2188,64.1362,422.2188,74.1362,426.2188,70.1362,422.2188" style="stroke:#181818;stroke-width:1;"/><line style="stroke:#181818;stroke-width:1;stroke-dasharray:2,2;" x1="68.1362" x2="215.8506" y1="422.2188" y2="422.2188"/><text fill="#000000" font-family="sans-serif" font-size="13" lengthAdjust="spacing" textLength="129.4097" x="80.1362" y="417.1528">"waiting for trigger"</text></g><line style="stroke:#000000;stroke-width:1;stroke-dasharray:2,2;" x1="10" x2="1549.7769" y1="431.2188" y2="431.2188"/><text fill="#000000" font-family="sans-serif" font-size="11" font-weight="700" lengthAdjust="spacing" textLength="72.3594" x="15" y="441.4292">[no trigger]</text><g class="message" data-entity-1="part2" data-entity-2="part4" data-source-line="25" id="msg9"><polygon fill="#181818" points="519.1284,462.1563,529.1284,466.1563,519.1284,470.1563,523.1284,466.1563" style="stroke:#181818;stroke-width:1;"/><line style="stroke:#181818;stroke-width:1;" x1="216.8506" x2="525.1284" y1="466.1563" y2="466.1563"/><text fill="#000000" font-family="sans-serif" font-size="13" lengthAdjust="spacing" textLength="54.0439" x="223.8506" y="461.0903">trigger()</text></g><g class="message" data-entity-1="part4" data-entity-2="part3" data-source-line="26" id="msg10"><polygon fill="#181818" points="365.7148,491.2891,355.7148,495.2891,365.7148,499.2891,361.7148,495.2891" style="stroke:#181818;stroke-width:1;"/><line style="stroke:#181818;stroke-width:1;" x1="359.7148" x2="530.1284" y1="495.2891" y2="495.2891"/><text fill="#000000" font-family="sans-serif" font-size="13" lengthAdjust="spacing" textLength="122.4971" x="371.7148" y="490.2231">nextRunId(task_id)</text></g><g class="message" data-entity-1="part3" data-entity-2="part9" data-source-line="27" id="msg11"><polygon fill="#181818" points="1479.7412,520.4219,1489.7412,524.4219,1479.7412,528.4219,1483.7412,524.4219" style="stroke:#181818;stroke-width:1;"/><line style="stroke:#181818;stroke-width:1;" x1="354.7148" x2="1485.7412" y1="524.4219" y2="524.4219"/><text fill="#000000" font-family="sans-serif" font-size="13" lengthAdjust="spacing" textLength="149.1001" x="361.7148" y="519.356">read/write run_counter</text></g><path d="M20,539.4219 L96.624,539.4219 L96.624,546.5547 L86.624,556.5547 L20,556.5547 L20,539.4219" fill="#EEEEEE" style="stroke:#000000;stroke-width:1.5;"/><rect fill="none" height="836.1953" style="stroke:#000000;stroke-width:1.5;" width="1519.7769" x="20" y="539.4219"/><text fill="#000000" font-family="sans-serif" font-size="13" font-weight="700" lengthAdjust="spacing" textLength="31.624" x="35" y="552.4888">loop</text><text fill="#000000" font-family="sans-serif" font-size="11" font-weight="700" lengthAdjust="spacing" textLength="165.8647" x="111.624" y="551.6323">[while runnable jobs exist]</text><path d="M469.084,563.5547 L533.5269,563.5547 L533.5269,570.6875 L523.5269,580.6875 L469.084,580.6875 L469.084,563.5547" fill="#EEEEEE" style="stroke:#000000;stroke-width:1.5;"/><rect fill="none" height="599.4609" style="stroke:#000000;stroke-width:1.5;" width="1060.6929" x="469.084" y="563.5547"/><text fill="#000000" font-family="sans-serif" font-size="13" font-weight="700" lengthAdjust="spacing" textLength="19.4429" x="484.084" y="576.6216">alt</text><text fill="#000000" font-family="sans-serif" font-size="11" font-weight="700" lengthAdjust="spacing" textLength="121.3276" x="548.5269" y="575.7651">[job.run_on = local]</text><g class="message" data-entity-1="part4" data-entity-2="part5" data-source-line="31" id="msg12"><polygon fill="#181818" points="714.062,597.8203,724.062,601.8203,714.062,605.8203,718.062,601.8203" style="stroke:#181818;stroke-width:1;"/><line style="stroke:#181818;stroke-width:1;" x1="531.1284" x2="720.062" y1="601.8203" y2="601.8203"/><text fill="#000000" font-family="sans-serif" font-size="13" lengthAdjust="spacing" textLength="77.7651" x="538.1284" y="596.7544">tryAcquire()</text></g><g class="message" data-entity-1="part5" data-entity-2="part4" data-source-line="32" id="msg13"><polygon fill="#181818" points="542.1284,626.9531,532.1284,630.9531,542.1284,634.9531,538.1284,630.9531" style="stroke:#181818;stroke-width:1;"/><line style="stroke:#181818;stroke-width:1;stroke-dasharray:2,2;" x1="536.1284" x2="725.062" y1="630.9531" y2="630.9531"/><text fill="#000000" font-family="sans-serif" font-size="13" lengthAdjust="spacing" textLength="106.2153" x="548.1284" y="625.8872">runner available</text></g><g class="message" data-entity-1="part4" data-entity-2="part6" data-source-line="33" id="msg14"><polygon fill="#181818" points="821.7749,656.0859,831.7749,660.0859,821.7749,664.0859,825.7749,660.0859" style="stroke:#181818;stroke-width:1;"/><line style="stroke:#181818;stroke-width:1;" x1="531.1284" x2="827.7749" y1="660.0859" y2="660.0859"/><text fill="#000000" font-family="sans-serif" font-size="13" lengthAdjust="spacing" textLength="71.8237" x="538.1284" y="655.02">runJob(job)</text></g><g class="message" data-entity-1="part6" data-entity-2="part4" data-source-line="34" id="msg15"><polygon fill="#181818" points="542.1284,685.2188,532.1284,689.2188,542.1284,693.2188,538.1284,689.2188" style="stroke:#181818;stroke-width:1;"/><line style="stroke:#181818;stroke-width:1;" x1="536.1284" x2="832.7749" y1="689.2188" y2="689.2188"/><text fill="#000000" font-family="sans-serif" font-size="13" lengthAdjust="spacing" textLength="175.1001" x="548.1284" y="684.1528">enqueue job_started event</text></g><g class="message" data-entity-1="part4" data-entity-2="part9" data-source-line="35" id="msg16"><polygon fill="#181818" points="1479.7412,714.3516,1489.7412,718.3516,1479.7412,722.3516,1483.7412,718.3516" style="stroke:#181818;stroke-width:1;"/><line style="stroke:#181818;stroke-width:1;" x1="531.1284" x2="1485.7412" y1="718.3516" y2="718.3516"/><text fill="#000000" font-family="sans-serif" font-size="13" lengthAdjust="spacing" textLength="158.9326" x="538.1284" y="713.2856">write job meta (running)</text></g><path d="M479.084,733.3516 L555.708,733.3516 L555.708,740.4844 L545.708,750.4844 L479.084,750.4844 L479.084,733.3516" fill="#EEEEEE" style="stroke:#000000;stroke-width:1.5;"/><rect fill="none" height="117.5313" style="stroke:#000000;stroke-width:1.5;" width="1040.6929" x="479.084" y="733.3516"/><text fill="#000000" font-family="sans-serif" font-size="13" font-weight="700" lengthAdjust="spacing" textLength="31.624" x="494.084" y="746.4185">loop</text><text fill="#000000" font-family="sans-serif" font-size="11" font-weight="700" lengthAdjust="spacing" textLength="149.3701" x="570.708" y="745.562">[each step (sequential)]</text><g class="message" data-entity-1="part6" data-entity-2="part6" data-source-line="38" id="msg17"><line style="stroke:#181818;stroke-width:1;" x1="833.7749" x2="875.7749" y1="771.6172" y2="771.6172"/><line style="stroke:#181818;stroke-width:1;" x1="875.7749" x2="875.7749" y1="771.6172" y2="784.6172"/><line style="stroke:#181818;stroke-width:1;" x1="834.7749" x2="875.7749" y1="784.6172" y2="784.6172"/><polygon fill="#181818" points="844.7749,780.6172,834.7749,784.6172,844.7749,788.6172,840.7749,784.6172" style="stroke:#181818;stroke-width:1;"/><text fill="#000000" font-family="sans-serif" font-size="13" lengthAdjust="spacing" textLength="165.2549" x="840.7749" y="766.5513">spawn command process</text></g><g class="message" data-entity-1="part6" data-entity-2="part4" data-source-line="39" id="msg18"><polygon fill="#181818" points="542.1284,809.75,532.1284,813.75,542.1284,817.75,538.1284,813.75" style="stroke:#181818;stroke-width:1;"/><line style="stroke:#181818;stroke-width:1;" x1="536.1284" x2="832.7749" y1="813.75" y2="813.75"/><text fill="#000000" font-family="sans-serif" font-size="13" lengthAdjust="spacing" textLength="180.5908" x="548.1284" y="808.6841">enqueue job_output chunks</text></g><g class="message" data-entity-1="part4" data-entity-2="part9" data-source-line="40" id="msg19"><polygon fill="#181818" points="1479.7412,838.8828,1489.7412,842.8828,1479.7412,846.8828,1483.7412,842.8828" style="stroke:#181818;stroke-width:1;"/><line style="stroke:#181818;stroke-width:1;" x1="531.1284" x2="1485.7412" y1="842.8828" y2="842.8828"/><text fill="#000000" font-family="sans-serif" font-size="13" lengthAdjust="spacing" textLength="118.4536" x="538.1284" y="837.8169">append stdout.log</text></g><g class="message" data-entity-1="part6" data-entity-2="part4" data-source-line="43" id="msg20"><polygon fill="#181818" points="542.1284,875.0156,532.1284,879.0156,542.1284,883.0156,538.1284,879.0156" style="stroke:#181818;stroke-width:1;"/><line style="stroke:#181818;stroke-width:1;" x1="536.1284" x2="832.7749" y1="879.0156" y2="879.0156"/><text fill="#000000" font-family="sans-serif" font-size="13" lengthAdjust="spacing" textLength="179.8735" x="548.1284" y="873.9497">enqueue job_finished event</text></g><g class="message" data-entity-1="part4" data-entity-2="part9" data-source-line="44" id="msg21"><polygon fill="#181818" points="1479.7412,904.1484,1489.7412,908.1484,1479.7412,912.1484,1483.7412,908.1484" style="stroke:#181818;stroke-width:1;"/><line style="stroke:#181818;stroke-width:1;" x1="531.1284" x2="1485.7412" y1="908.1484" y2="908.1484"/><text fill="#000000" font-family="sans-serif" font-size="13" lengthAdjust="spacing" textLength="200.0146" x="538.1284" y="903.0825">write job meta (success/failed)</text></g><g class="message" data-entity-1="part4" data-entity-2="part5" data-source-line="45" id="msg22"><polygon fill="#181818" points="714.062,933.2813,724.062,937.2813,714.062,941.2813,718.062,937.2813" style="stroke:#181818;stroke-width:1;"/><line style="stroke:#181818;stroke-width:1;" x1="531.1284" x2="720.062" y1="937.2813" y2="937.2813"/><text fill="#000000" font-family="sans-serif" font-size="13" lengthAdjust="spacing" textLength="101.2388" x="538.1284" y="932.2153">release(runner)</text></g><line style="stroke:#000000;stroke-width:1;stroke-dasharray:2,2;" x1="469.084" x2="1529.7769" y1="946.2813" y2="946.2813"/><text fill="#000000" font-family="sans-serif" font-size="11" font-weight="700" lengthAdjust="spacing" textLength="136.9092" x="474.084" y="956.4917">[job.run_on = remote]</text><g class="message" data-entity-1="part4" data-entity-2="part7" data-source-line="48" id="msg23"><polygon fill="#181818" points="1001.0298,977.2188,1011.0298,981.2188,1001.0298,985.2188,1005.0298,981.2188" style="stroke:#181818;stroke-width:1;"/><line style="stroke:#181818;stroke-width:1;" x1="531.1284" x2="1007.0298" y1="981.2188" y2="981.2188"/><text fill="#000000" font-family="sans-serif" font-size="13" lengthAdjust="spacing" textLength="201.0493" x="538.1284" y="976.1528">pushDispatch(job, agent_spec)</text></g><g class="message" data-entity-1="part7" data-entity-2="part8" data-source-line="49" id="msg24"><polygon fill="#181818" points="1359.1641,1006.3516,1369.1641,1010.3516,1359.1641,1014.3516,1363.1641,1010.3516" style="stroke:#181818;stroke-width:1;"/><line style="stroke:#181818;stroke-width:1;" x1="1013.0298" x2="1365.1641" y1="1010.3516" y2="1010.3516"/><text fill="#000000" font-family="sans-serif" font-size="13" lengthAdjust="spacing" textLength="131.7837" x="1020.0298" y="1005.2856">TCP RUN_JOB(steps)</text></g><g class="message" data-entity-1="part8" data-entity-2="part8" data-source-line="50" id="msg25"><line style="stroke:#181818;stroke-width:1;" x1="1371.1641" x2="1413.1641" y1="1039.4844" y2="1039.4844"/><line style="stroke:#181818;stroke-width:1;" x1="1413.1641" x2="1413.1641" y1="1039.4844" y2="1052.4844"/><line style="stroke:#181818;stroke-width:1;" x1="1372.1641" x2="1413.1641" y1="1052.4844" y2="1052.4844"/><polygon fill="#181818" points="1382.1641,1048.4844,1372.1641,1052.4844,1382.1641,1056.4844,1378.1641,1052.4844" style="stroke:#181818;stroke-width:1;"/><text fill="#000000" font-family="sans-serif" font-size="13" lengthAdjust="spacing" textLength="106.5771" x="1378.1641" y="1034.4185">run steps locally</text></g><g class="message" data-entity-1="part8" data-entity-2="part7" data-source-line="51" id="msg26"><polygon fill="#181818" points="1024.0298,1077.6172,1014.0298,1081.6172,1024.0298,1085.6172,1020.0298,1081.6172" style="stroke:#181818;stroke-width:1;"/><line style="stroke:#181818;stroke-width:1;" x1="1018.0298" x2="1370.1641" y1="1081.6172" y2="1081.6172"/><text fill="#000000" font-family="sans-serif" font-size="13" lengthAdjust="spacing" textLength="334.1343" x="1030.0298" y="1076.5513">TCP JOB_START / JOB_LOG* / JOB_FINISH(exit_code)</text></g><g class="message" data-entity-1="part7" data-entity-2="part4" data-source-line="52" id="msg27"><polygon fill="#181818" points="542.1284,1106.75,532.1284,1110.75,542.1284,1114.75,538.1284,1110.75" style="stroke:#181818;stroke-width:1;"/><line style="stroke:#181818;stroke-width:1;" x1="536.1284" x2="1012.0298" y1="1110.75" y2="1110.75"/><text fill="#000000" font-family="sans-serif" font-size="13" lengthAdjust="spacing" textLength="128.8447" x="548.1284" y="1105.6841">enqueue job events</text></g><g class="message" data-entity-1="part4" data-entity-2="part9" data-source-line="53" id="msg28"><polygon fill="#181818" points="1479.7412,1151.0156,1489.7412,1155.0156,1479.7412,1159.0156,1483.7412,1155.0156" style="stroke:#181818;stroke-width:1;"/><line style="stroke:#181818;stroke-width:1;" x1="531.1284" x2="1485.7412" y1="1155.0156" y2="1155.0156"/><text fill="#000000" font-family="sans-serif" font-size="13" lengthAdjust="spacing" textLength="118.4536" x="538.1284" y="1134.8169">append stdout.log</text><text fill="#000000" font-family="sans-serif" font-size="13" lengthAdjust="spacing" textLength="200.0146" x="538.1284" y="1149.9497">write job meta (success/failed)</text></g><path d="M30,1177.0156 L94.4429,1177.0156 L94.4429,1184.1484 L84.4429,1194.1484 L30,1194.1484 L30,1177.0156" fill="#EEEEEE" style="stroke:#000000;stroke-width:1.5;"/><rect fill="none" height="191.6016" style="stroke:#000000;stroke-width:1.5;" width="1489.7769" x="30" y="1177.0156"/><text fill="#000000" font-family="sans-serif" font-size="13" font-weight="700" lengthAdjust="spacing" textLength="19.4429" x="45" y="1190.0825">alt</text><text fill="#000000" font-family="sans-serif" font-size="11" font-weight="700" lengthAdjust="spacing" textLength="81.0605" x="109.4429" y="1189.2261">[job success]</text><g class="message" data-entity-1="part4" data-entity-2="part4" data-source-line="57" id="msg29"><line style="stroke:#181818;stroke-width:1;" x1="531.1284" x2="573.1284" y1="1215.2813" y2="1215.2813"/><line style="stroke:#181818;stroke-width:1;" x1="573.1284" x2="573.1284" y1="1215.2813" y2="1228.2813"/><line style="stroke:#181818;stroke-width:1;" x1="532.1284" x2="573.1284" y1="1228.2813" y2="1228.2813"/><polygon fill="#181818" points="542.1284,1224.2813,532.1284,1228.2813,542.1284,1232.2813,538.1284,1228.2813" style="stroke:#181818;stroke-width:1;"/><text fill="#000000" font-family="sans-serif" font-size="13" lengthAdjust="spacing" textLength="123.9507" x="538.1284" y="1210.2153">unlock dependents</text></g><line style="stroke:#000000;stroke-width:1;stroke-dasharray:2,2;" x1="30" x2="1519.7769" y1="1237.2813" y2="1237.2813"/><text fill="#000000" font-family="sans-serif" font-size="11" font-weight="700" lengthAdjust="spacing" textLength="68.1699" x="35" y="1247.4917">[job failed]</text><g class="message" data-entity-1="part4" data-entity-2="part4" data-source-line="59" id="msg30"><line style="stroke:#181818;stroke-width:1;" x1="531.1284" x2="573.1284" y1="1287.3516" y2="1287.3516"/><line style="stroke:#181818;stroke-width:1;" x1="573.1284" x2="573.1284" y1="1287.3516" y2="1300.3516"/><line style="stroke:#181818;stroke-width:1;" x1="532.1284" x2="573.1284" y1="1300.3516" y2="1300.3516"/><polygon fill="#181818" points="542.1284,1296.3516,532.1284,1300.3516,542.1284,1304.3516,538.1284,1300.3516" style="stroke:#181818;stroke-width:1;"/><text fill="#000000" font-family="sans-serif" font-size="13" lengthAdjust="spacing" textLength="180.0576" x="538.1284" y="1267.1528">skip remaining queued jobs</text><text fill="#000000" font-family="sans-serif" font-size="13" lengthAdjust="spacing" textLength="178.3184" x="538.1284" y="1282.2856">cancel running remote jobs</text></g><g class="message" data-entity-1="part4" data-entity-2="part9" data-source-line="60" id="msg31"><polygon fill="#181818" points="1479.7412,1325.4844,1489.7412,1329.4844,1479.7412,1333.4844,1483.7412,1329.4844" style="stroke:#181818;stroke-width:1;"/><line style="stroke:#181818;stroke-width:1;" x1="531.1284" x2="1485.7412" y1="1329.4844" y2="1329.4844"/><text fill="#000000" font-family="sans-serif" font-size="13" lengthAdjust="spacing" textLength="258.1147" x="538.1284" y="1324.4185">update remaining job metas as skipped</text></g><path d="M40,1344.4844 L126.9517,1344.4844 L126.9517,1351.6172 L116.9517,1361.6172 L40,1361.6172 L40,1344.4844" fill="#EEEEEE" style="stroke:#000000;stroke-width:1.5;"/><rect fill="none" height="17.1328" style="stroke:#000000;stroke-width:1.5;" width="207.3804" x="40" y="1344.4844"/><text fill="#000000" font-family="sans-serif" font-size="13" font-weight="700" lengthAdjust="spacing" textLength="41.9517" x="55" y="1357.5513">break</text><text fill="#000000" font-family="sans-serif" font-size="11" font-weight="700" lengthAdjust="spacing" textLength="100.4287" x="141.9517" y="1356.6948">[task run failed]</text><g class="message" data-entity-1="part4" data-entity-2="part9" data-source-line="67" id="msg32"><polygon fill="#181818" points="1479.7412,1399.75,1489.7412,1403.75,1479.7412,1407.75,1483.7412,1403.75" style="stroke:#181818;stroke-width:1;"/><line style="stroke:#181818;stroke-width:1;" x1="531.1284" x2="1485.7412" y1="1403.75" y2="1403.75"/><text fill="#000000" font-family="sans-serif" font-size="13" lengthAdjust="spacing" textLength="279.8745" x="538.1284" y="1398.6841">write run meta (success/failed/interrupted)</text></g><g class="message" data-entity-1="part4" data-entity-2="part3" data-source-line="68" id="msg33"><polygon fill="#181818" points="365.7148,1428.8828,355.7148,1432.8828,365.7148,1436.8828,361.7148,1432.8828" style="stroke:#181818;stroke-width:1;"/><line style="stroke:#181818;stroke-width:1;" x1="359.7148" x2="530.1284" y1="1432.8828" y2="1432.8828"/><text fill="#000000" font-family="sans-serif" font-size="13" lengthAdjust="spacing" textLength="152.4136" x="371.7148" y="1427.8169">addNewTaskRun(meta)</text></g><g class="message" data-entity-1="part2" data-entity-2="part1" data-source-line="69" id="msg34"><polygon fill="#181818" points="74.1362,1458.0156,64.1362,1462.0156,74.1362,1466.0156,70.1362,1462.0156" style="stroke:#181818;stroke-width:1;"/><line style="stroke:#181818;stroke-width:1;stroke-dasharray:2,2;" x1="68.1362" x2="215.8506" y1="1462.0156" y2="1462.0156"/><text fill="#000000" font-family="sans-serif" font-size="13" lengthAdjust="spacing" textLength="129.7144" x="80.1362" y="1456.9497">run_finished(status)</text></g><?plantuml-src bLNVRnen37xFNs7nT6nhUP-qIQoeBHMqrHrecbG9XJiNCaAIvaTf__ivkUFAKQPrVId4zkVFzcVZXPS8UL1Ag1Lmc76tWQp0fu2gn3vZlFJQGc_kq3wex68o7ipcutuFk8CvCznwKGh3bOTU39ronLTeatasxTf7tFE2m31PHqNNMfHhh89CMGnQy8HMfoakhhkkaItQUwrbikVtNVD4brpMFia-oO_2SQiz7ZBDfwSyXYjKlhOFMKNabzmXbI7S9hrU5epDuUmx5GfVOOaheM8BiiXy8Qe-etUoZWgoIishhf6UoNWPZHPvbUg5NyFf95dsgFKuY9p35f3wGHQXX4zeVHOVslTb4BA2qV0AFiCpbuA88vIlfKH7mvI-JhGc_jwA5NM00HpYElImuyAJ76WIFxcdkLZoLnKXW2Gqssz2A6PE4Rt67Hv9A0reZp6Kr2sb_vAcUSqYLiC_DKhXYwVPZQktJW4SzMgmiuAAia4jIXqKCMBa9BKsi5iBcIoAB-d3RxrqW2_2UN80YENJqtcCr0g-KGn99PbQ5lbzOlSwB9-2i9W8nZzwFslPswGkuCzSo9Ye2p79QvSRlSmetHw1dbi0LBHW8H5SE4_QmmhmcVJMHKebrzMI9spHSyXilQnzrlYcmf6NQt0U3MGkBQyNNEupxtCdOixmdO9IRxSqKp1Mb-ZSaUDxaZfu4poKww0sRzw7DBanI83EL-HxBlMgyQ97zeyEF9AOtVe_Mk126LaF7gd_MFLFJD2YH5hNh9vKqwiaoOu0RDhqe_YuU2QuDMswYVgFG_m2F9w3XJDOjf98Uiw7SKylxY6VtovkxdvaSGgkzHcsFfGqJSZLifElNPTf0qCGYs8sp6SmI9ydTrUVce-NuzjnSPsHe3qfly8kaNTzhTlfs0TczQ0-qk8uolZ_S9cWSUncgRa4HPLkeCAOhQModmBKqAS2tKQOE1ikqizIggXAs_oWIau_J1AQBMWcc6md2WqctRytg7s1BbxmcCQq39PqMpRrUOoZwh3RLzw8kVxAJeaqXfxgu434GsM3yNKt3uyUhwfRtCLRJwSlYz579pRgTRyaf2_k0mcC4Oi_?></g></svg>