<svg xmlns="http://www.w3.org/2000/svg" xmlns:xlink="http://www.w3.org/1999/xlink" contentStyleType="text/css" data-diagram-type="DESCRIPTION" height="869px" preserveAspectRatio="none" style="width:1007px;height:869px;background:#FFFFFF;" version="1.1" viewBox="0 0 1007 869" width="1007px" zoomAndPan="magnify"><?plantuml 1.2026.4beta2?><defs/><g><!--cluster Main Thread (1)--><g class="cluster" data-qualified-name="Main Thread .1." data-source-line="3" id="ent0002"><path d="M153.5,6 L280.3154,6 A3.75,3.75 0 0 1 282.8154,8.5 L289.8154,28.2969 L289.5,28.2969 A2.5,2.5 0 0 1 292,30.7969 L292,90.8 A2.5,2.5 0 0 1 289.5,93.3 L153.5,93.3 A2.5,2.5 0 0 1 151,90.8 L151,8.5 A2.5,2.5 0 0 1 153.5,6" fill="none" style="stroke:#000000;stroke-width:1.5;"/><line style="stroke:#000000;stroke-width:1.5;" x1="151" x2="289.8154" y1="28.2969" y2="28.2969"/><text fill="#000000" font-family="sans-serif" font-size="14" font-weight="700" lengthAdjust="spacing" textLength="125.8154" x="155" y="20.9951">Main Thread (1)</text></g><!--cluster TaskManager Thread (1)--><g class="cluster" data-qualified-name="TaskManager Thread .1." data-source-line="7" id="ent0004"><path d="M8.5,142.3 L203.0254,142.3 A3.75,3.75 0 0 1 205.5254,144.8 L212.5254,164.5969 L291.5,164.5969 A2.5,2.5 0 0 1 294,167.0969 L294,511.99 A2.5,2.5 0 0 1 291.5,514.49 L8.5,514.49 A2.5,2.5 0 0 1 6,511.99 L6,144.8 A2.5,2.5 0 0 1 8.5,142.3" fill="none" style="stroke:#000000;stroke-width:1.5;"/><line style="stroke:#000000;stroke-width:1.5;" x1="6" x2="212.5254" y1="164.5969" y2="164.5969"/><text fill="#000000" font-family="sans-serif" font-size="14" font-weight="700" lengthAdjust="spacing" textLength="193.5254" x="10" y="157.2951">TaskManager Thread (1)</text></g><!--cluster Watcher Thread (1)--><g class="cluster" data-qualified-name="Watcher Thread .1." data-source-line="13" id="ent0008"><path d="M710.5,276.6 L865.418,276.6 A3.75,3.75 0 0 1 867.918,279.1 L874.918,298.8969 L989.5,298.8969 A2.5,2.5 0 0 1 992,301.3969 L992,503.84 A2.5,2.5 0 0 1 989.5,506.34 L710.5,506.34 A2.5,2.5 0 0 1 708,503.84 L708,279.1 A2.5,2.5 0 0 1 710.5,276.6" fill="none" style="stroke:#000000;stroke-width:1.5;"/><line style="stroke:#000000;stroke-width:1.5;" x1="708" x2="874.918" y1="298.8969" y2="298.8969"/><text fill="#000000" font-family="sans-serif" font-size="14" font-weight="700" lengthAdjust="spacing" textLength="153.918" x="712" y="291.5951">Watcher Thread (1)</text></g><!--cluster Local Runner Threads (N = runner pool size)--><g class="cluster" data-qualified-name="Local Runner Threads .N . runner pool size." data-source-line="19" id="ent0012"><path d="M320.5,419.04 L671.7803,419.04 A3.75,3.75 0 0 1 674.2803,421.54 L681.2803,441.3369 L681.5,441.3369 A2.5,2.5 0 0 1 684,443.8369 L684,503.84 A2.5,2.5 0 0 1 681.5,506.34 L320.5,506.34 A2.5,2.5 0 0 1 318,503.84 L318,421.54 A2.5,2.5 0 0 1 320.5,419.04" fill="none" style="stroke:#000000;stroke-width:1.5;"/><line style="stroke:#000000;stroke-width:1.5;" x1="318" x2="681.2803" y1="441.3369" y2="441.3369"/><text fill="#000000" font-family="sans-serif" font-size="14" font-weight="700" lengthAdjust="spacing" textLength="350.2803" x="322" y="434.0351">Local Runner Threads (N = runner pool size)</text></g><!--cluster Remote Agent Process--><g class="cluster" data-qualified-name="Remote Agent Process" data-source-line="23" id="ent0014"><path d="M10.5,563.49 L190.1709,563.49 A3.75,3.75 0 0 1 192.6709,565.99 L199.6709,585.7869 L321.5,585.7869 A2.5,2.5 0 0 1 324,588.2869 L324,851.58 A2.5,2.5 0 0 1 321.5,854.08 L10.5,854.08 A2.5,2.5 0 0 1 8,851.58 L8,565.99 A2.5,2.5 0 0 1 10.5,563.49" fill="none" style="stroke:#000000;stroke-width:1.5;"/><line style="stroke:#000000;stroke-width:1.5;" x1="8" x2="199.6709" y1="585.7869" y2="585.7869"/><text fill="#000000" font-family="sans-serif" font-size="14" font-weight="700" lengthAdjust="spacing" textLength="178.6709" x="12" y="578.4851">Remote Agent Process</text></g><!--cluster Agent Loop Thread (1)--><g class="cluster" data-qualified-name="Remote Agent Process.Agent Loop Thread .1." data-source-line="24" id="ent0015"><path d="M51.5,606.49 L230.2344,606.49 A3.75,3.75 0 0 1 232.7344,608.99 L239.7344,628.7869 L239.5,628.7869 A2.5,2.5 0 0 1 242,631.2869 L242,691.28 A2.5,2.5 0 0 1 239.5,693.78 L51.5,693.78 A2.5,2.5 0 0 1 49,691.28 L49,608.99 A2.5,2.5 0 0 1 51.5,606.49" fill="none" style="stroke:#000000;stroke-width:1.5;"/><line style="stroke:#000000;stroke-width:1.5;" x1="49" x2="239.7344" y1="628.7869" y2="628.7869"/><text fill="#000000" font-family="sans-serif" font-size="14" font-weight="700" lengthAdjust="spacing" textLength="177.7344" x="53" y="621.4851">Agent Loop Thread (1)</text></g><!--cluster Agent Local Runner Threads (N)--><g class="cluster" data-qualified-name="Remote Agent Process.Agent Local Runner Threads .N." data-source-line="27" id="ent0017"><path d="M34.5,742.78 L288.4023,742.78 A3.75,3.75 0 0 1 290.9023,745.28 L297.9023,765.0769 L297.5,765.0769 A2.5,2.5 0 0 1 300,767.5769 L300,827.58 A2.5,2.5 0 0 1 297.5,830.08 L34.5,830.08 A2.5,2.5 0 0 1 32,827.58 L32,745.28 A2.5,2.5 0 0 1 34.5,742.78" fill="none" style="stroke:#000000;stroke-width:1.5;"/><line style="stroke:#000000;stroke-width:1.5;" x1="32" x2="297.9023" y1="765.0769" y2="765.0769"/><text fill="#000000" font-family="sans-serif" font-size="14" font-weight="700" lengthAdjust="spacing" textLength="252.9023" x="36" y="757.7751">Agent Local Runner Threads (N)</text></g><!--entity U--><g class="entity" data-qualified-name="Main Thread .1..U" data-source-line="4" id="ent0003"><rect fill="#F1F1F1" height="36.2969" rx="2.5" ry="2.5" style="stroke:#181818;stroke-width:0.5;" width="78.249" x="181.88" y="41"/><text fill="#000000" font-family="sans-serif" font-size="14" lengthAdjust="spacing" textLength="58.249" x="191.88" y="63.9951">CLI / TUI</text></g><!--entity TM--><g class="entity" data-qualified-name="TaskManager Thread .1..TM" data-source-line="8" id="ent0005"><rect fill="#F1F1F1" height="36.2969" rx="2.5" ry="2.5" style="stroke:#181818;stroke-width:0.5;" width="113.8984" x="164.05" y="177.3"/><text fill="#000000" font-family="sans-serif" font-size="14" lengthAdjust="spacing" textLength="93.8984" x="174.05" y="200.2951">TaskManager</text></g><!--entity SCH--><g class="entity" data-qualified-name="TaskManager Thread .1..SCH" data-source-line="9" id="ent0006"><rect fill="#F1F1F1" height="52.5938" rx="2.5" ry="2.5" style="stroke:#181818;stroke-width:0.5;" width="108.3066" x="169.85" y="303.45"/><text fill="#000000" font-family="sans-serif" font-size="14" lengthAdjust="spacing" textLength="88.3066" x="179.85" y="326.4451">Scheduler(s)</text><text fill="#000000" font-family="sans-serif" font-size="14" lengthAdjust="spacing" textLength="24.8076" x="179.85" y="342.742">0..*</text></g><!--entity RM--><g class="entity" data-qualified-name="TaskManager Thread .1..RM" data-source-line="10" id="ent0007"><rect fill="#F1F1F1" height="52.5938" rx="2.5" ry="2.5" style="stroke:#181818;stroke-width:0.5;" width="136.0127" x="52.99" y="445.89"/><text fill="#000000" font-family="sans-serif" font-size="14" lengthAdjust="spacing" textLength="116.0127" x="62.99" y="468.8851">RemoteManager</text><text fill="#000000" font-family="sans-serif" font-size="14" lengthAdjust="spacing" textLength="86.4609" x="62.99" y="485.182">(TCP server)</text></g><!--entity W--><g class="entity" data-qualified-name="Watcher Thread .1..W" data-source-line="14" id="ent0009"><rect fill="#F1F1F1" height="36.2969" rx="2.5" ry="2.5" style="stroke:#181818;stroke-width:0.5;" width="78.8506" x="732.57" y="311.6"/><text fill="#000000" font-family="sans-serif" font-size="14" lengthAdjust="spacing" textLength="58.8506" x="742.57" y="334.5951">Watcher</text></g><!--entity FW--><g class="entity" data-qualified-name="Watcher Thread .1..FW" data-source-line="15" id="ent0010"><rect fill="#F1F1F1" height="36.2969" rx="2.5" ry="2.5" style="stroke:#181818;stroke-width:0.5;" width="103.2959" x="872.35" y="454.04"/><text fill="#000000" font-family="sans-serif" font-size="14" lengthAdjust="spacing" textLength="83.2959" x="882.35" y="477.0351">FileWatcher</text></g><!--entity TW--><g class="entity" data-qualified-name="Watcher Thread .1..TW" data-source-line="16" id="ent0011"><rect fill="#F1F1F1" height="36.2969" rx="2.5" ry="2.5" style="stroke:#181818;stroke-width:0.5;" width="113.543" x="724.23" y="454.04"/><text fill="#000000" font-family="sans-serif" font-size="14" lengthAdjust="spacing" textLength="93.543" x="734.23" y="477.0351">TimeWatcher</text></g><!--entity LR--><g class="entity" data-qualified-name="Local Runner Threads .N . runner pool size..LR" data-source-line="20" id="ent0013"><rect fill="#F1F1F1" height="36.2969" rx="2.5" ry="2.5" style="stroke:#181818;stroke-width:0.5;" width="107.2471" x="334.38" y="454.04"/><text fill="#000000" font-family="sans-serif" font-size="14" lengthAdjust="spacing" textLength="87.2471" x="344.38" y="477.0351">LocalRunner</text></g><!--entity RA--><g class="entity" data-qualified-name="Remote Agent Process.Agent Loop Thread .1..RA" data-source-line="25" id="ent0016"><rect fill="#F1F1F1" height="36.2969" rx="2.5" ry="2.5" style="stroke:#181818;stroke-width:0.5;" width="116.0859" x="73.96" y="641.49"/><text fill="#000000" font-family="sans-serif" font-size="14" lengthAdjust="spacing" textLength="96.0859" x="83.96" y="664.4851">RemoteAgent</text></g><!--entity ALR--><g class="entity" data-qualified-name="Remote Agent Process.Agent Local Runner Threads .N..ALR" data-source-line="28" id="ent0018"><rect fill="#F1F1F1" height="36.2969" rx="2.5" ry="2.5" style="stroke:#181818;stroke-width:0.5;" width="153.1367" x="55.43" y="777.78"/><text fill="#000000" font-family="sans-serif" font-size="14" lengthAdjust="spacing" textLength="133.1367" x="65.43" y="800.7751">Agent LocalRunner</text></g><!--link U to TM--><g class="link" data-entity-1="ent0003" data-entity-2="ent0005" data-link-type="dependency" data-source-line="32" id="lnk19"><path d="M221,77.71 C221,103.45 221,145.15 221,170.89" fill="none" id="U-to-TM" style="stroke:#181818;stroke-width:1;"/><polygon fill="#181818" points="221,176.89,225,167.89,221,171.89,217,167.89,221,176.89" style="stroke:#181818;stroke-width:1;"/><text fill="#000000" font-family="sans-serif" font-size="13" lengthAdjust="spacing" textLength="36.353" x="222" y="122.3669">begin</text></g><!--link TM to W--><g class="link" data-entity-1="ent0005" data-entity-2="ent0009" data-link-type="dependency" data-source-line="33" id="lnk20"><path d="M278.41,210.23 C390.59,237.17 630.4857,294.7696 726.5557,317.8296" fill="none" id="TM-to-W" style="stroke:#181818;stroke-width:1;"/><polygon fill="#181818" points="732.39,319.23,724.5722,313.2398,727.5281,318.063,722.705,321.0189,732.39,319.23" style="stroke:#181818;stroke-width:1;"/><text fill="#000000" font-family="sans-serif" font-size="13" lengthAdjust="spacing" textLength="119.3486" x="480" y="256.6669">configure watches</text></g><!--link W to TM--><g class="link" data-entity-1="ent0009" data-entity-2="ent0005" data-link-type="dependency" data-source-line="34" id="lnk21"><path d="M745.44,311.12 C714.03,291.22 659.49,259.53 608,243.6 C494.68,208.54 361.1474,199.5582 284.3974,197.2782" fill="none" id="W-to-TM" style="stroke:#181818;stroke-width:1;"/><polygon fill="#181818" points="278.4,197.1,287.2773,201.3655,283.3978,197.2485,287.5148,193.369,278.4,197.1" style="stroke:#181818;stroke-width:1;"/><text fill="#000000" font-family="sans-serif" font-size="13" lengthAdjust="spacing" textLength="43.7988" x="651" y="256.6669">events</text></g><!--link W to FW--><g class="link" data-entity-1="ent0009" data-entity-2="ent0010" data-link-type="dependency" data-source-line="35" id="lnk22"><path d="M804.05,348.18 C820.77,358.1 841.02,371.43 857,386.04 C879.63,406.73 897.2648,430.6091 909.5148,448.8491" fill="none" id="W-to-FW" style="stroke:#181818;stroke-width:1;"/><polygon fill="#181818" points="912.86,453.83,911.1628,444.1285,910.0723,449.6792,904.5216,448.5887,912.86,453.83" style="stroke:#181818;stroke-width:1;"/><text fill="#000000" font-family="sans-serif" font-size="13" lengthAdjust="spacing" textLength="71.3604" x="874" y="399.1069">poll events</text></g><!--link W to TW--><g class="link" data-entity-1="ent0009" data-entity-2="ent0011" data-link-type="dependency" data-source-line="36" id="lnk23"><path d="M773.12,348.25 C774.86,375.31 777.7876,420.9922 779.5076,447.9222" fill="none" id="W-to-TW" style="stroke:#181818;stroke-width:1;"/><polygon fill="#181818" points="779.89,453.91,783.3082,444.6733,779.5713,448.9202,775.3245,445.1833,779.89,453.91" style="stroke:#181818;stroke-width:1;"/><text fill="#000000" font-family="sans-serif" font-size="13" lengthAdjust="spacing" textLength="71.3604" x="777" y="399.1069">poll events</text></g><!--link TM to SCH--><g class="link" data-entity-1="ent0005" data-entity-2="ent0006" data-link-type="dependency" data-source-line="37" id="lnk24"><path d="M221.4,214.02 C221.92,236.93 222.6927,271.1816 223.2927,297.3916" fill="none" id="TM-to-SCH" style="stroke:#181818;stroke-width:1;"/><polygon fill="#181818" points="223.43,303.39,227.223,294.3008,223.3156,298.3913,219.2251,294.4839,223.43,303.39" style="stroke:#181818;stroke-width:1;"/><text fill="#000000" font-family="sans-serif" font-size="13" lengthAdjust="spacing" textLength="45.8047" x="224" y="256.6669">update</text></g><!--link SCH to LR--><g class="link" data-entity-1="ent0006" data-entity-2="ent0013" data-link-type="dependency" data-source-line="38" id="lnk25"><path d="M269.43,356.4 C283.32,365.07 298.28,375.31 311,386.04 C335.68,406.86 356.2175,430.7403 370.7175,448.9103" fill="none" id="SCH-to-LR" style="stroke:#181818;stroke-width:1;"/><polygon fill="#181818" points="374.46,453.6,371.9727,444.0704,371.3412,449.6919,365.7198,449.0604,374.46,453.6" style="stroke:#181818;stroke-width:1;"/><text fill="#000000" font-family="sans-serif" font-size="13" lengthAdjust="spacing" textLength="147.4561" x="330" y="399.1069">spawn runner for a job</text></g><!--link TM to RM--><g class="link" data-entity-1="ent0005" data-entity-2="ent0007" data-link-type="dependency" data-source-line="39" id="lnk26"><path d="M163.8,208.76 C131.44,218.98 93.62,237.11 74,268.6 C38.86,324.98 75.3633,399.8675 100.4433,440.4075" fill="none" id="TM-to-RM" style="stroke:#181818;stroke-width:1;"/><polygon fill="#181818" points="103.6,445.51,102.2667,435.7518,100.9695,441.2579,95.4634,439.9607,103.6,445.51" style="stroke:#181818;stroke-width:1;"/><text fill="#000000" font-family="sans-serif" font-size="13" lengthAdjust="spacing" textLength="76.832" x="75" y="334.3069">poll sockets</text></g><!--link SCH to RM--><g class="link" data-entity-1="ent0006" data-entity-2="ent0007" data-link-type="dependency" data-source-line="40" id="lnk27"><path d="M195,356.29 C185.77,365.19 175.92,375.58 168,386.04 C153.93,404.62 144.0202,422.5221 135.4302,440.0521" fill="none" id="SCH-to-RM" style="stroke:#181818;stroke-width:1;"/><polygon fill="#181818" points="132.79,445.44,140.3422,439.1183,134.9901,440.9501,133.1583,435.598,132.79,445.44" style="stroke:#181818;stroke-width:1;"/><text fill="#000000" font-family="sans-serif" font-size="13" lengthAdjust="spacing" textLength="137.249" x="169" y="399.1069">dispatch remote jobs</text></g><!--link RM to RA--><g class="link" data-entity-1="ent0007" data-entity-2="ent0016" data-link-type="dependency" data-source-line="41" id="lnk28"><path d="M88.16,498.68 C75.12,512.04 64.22,529.37 69,547.49 C78.5,583.52 99.0885,615.3088 114.5785,636.2188" fill="none" id="RM-to-RA" style="stroke:#181818;stroke-width:1;"/><polygon fill="#181818" points="118.15,641.04,116.0069,631.4271,115.1737,637.0223,109.5786,636.1892,118.15,641.04" style="stroke:#181818;stroke-width:1;"/><text fill="#000000" font-family="sans-serif" font-size="13" lengthAdjust="spacing" textLength="24.8574" x="70" y="543.5569">TCP</text></g><!--link RA to RM--><g class="link" data-entity-1="ent0016" data-entity-2="ent0007" data-link-type="dependency" data-source-line="42" id="lnk29"><path d="M130.96,641.11 C129.01,608.26 125.1548,543.2795 122.8848,504.9595" fill="none" id="RA-to-RM" style="stroke:#181818;stroke-width:1;"/><polygon fill="#181818" points="122.53,498.97,119.0692,508.1908,122.8257,503.9613,127.0552,507.7177,122.53,498.97" style="stroke:#181818;stroke-width:1;"/><text fill="#000000" font-family="sans-serif" font-size="13" lengthAdjust="spacing" textLength="24.8574" x="127" y="543.5569">TCP</text></g><!--link RA to ALR--><g class="link" data-entity-1="ent0016" data-entity-2="ent0018" data-link-type="dependency" data-source-line="43" id="lnk30"><path d="M132,678.19 C132,703.93 132,745.63 132,771.37" fill="none" id="RA-to-ALR" style="stroke:#181818;stroke-width:1;"/><polygon fill="#181818" points="132,777.37,136,768.37,132,772.37,128,768.37,132,777.37" style="stroke:#181818;stroke-width:1;"/><text fill="#000000" font-family="sans-serif" font-size="13" lengthAdjust="spacing" textLength="116.4922" x="133" y="722.8469">run jobs (threads)</text></g><?plantuml-src VLDFRu8m5B_tKxnmWYMwxRfaIuY9cGai1Z5Sl5Hu8WDQqg9cM_pkUnHHKEEj_VthUw-jpZDHSSLBY6LPIO6YNjG_1OB2kEOYBP2nYiSvJn4idsS2mgr2de3zwbZmn-3Y0slYpU0PmkNC0gvXoOuzRyXrxdD1Q_KeeYSp8Q4_v1Vn5fDTWShMpagyZCTFHhQOV0vr0PQonbFIIjZXP0uQrHwLOmo1FwWkuZK5Fwpi937kQ4XDimBxzFIA3xDom8VHu71Fnho0O2V4kG8DzXUyWsgnIie2TFQBjrKPRsirqLumY6x706xQYETAngXrct6Mj9mdPNNJ_Ps96dKxGPSKntj9Txkv5zapz5fmgOSccVfOmcZqGMy0tc2DQIOOBHia8Y2MOfEbEuLmCAFLBBgeSK_97J9jv9KiYY4SNiEdS7fBHEogXDV8caq3UW5Xkk87qLtAHYhWy2tNdI_mkpmjunmfi3CR9id8JeNIpp9tGaxDWfFL9G4zKKQBiw6tTytnTB1nWLstOtN-0G00?></g></svg>